<svg width="19" height="21" viewBox="0 0 19 21" fill="none" xmlns="http://www.w3.org/2000/svg">
<path d="M17.9796 20.5656C18.124 20.4055 18.1933 20.1919 18.1709 19.9779L18.1709 19.9779L16.678 5.76163L16.678 5.76159C16.6373 5.37497 16.3114 5.08132 15.9225 5.08132H13.2917V4.61659C13.2917 2.52582 11.5908 0.825 9.50007 0.825C7.40916 0.825 5.70833 2.52582 5.70833 4.61659V5.08132H3.07746C2.68858 5.08132 2.36267 5.37497 2.32199 5.76159L2.32198 5.76163L0.829131 19.9779L0.829124 19.9779C0.806727 20.192 0.876252 20.4055 1.02004 20.5654L1.02019 20.5656C1.16426 20.7254 1.36944 20.8167 1.58461 20.8167H17.4152C17.6305 20.8167 17.8357 20.7255 17.9796 20.5656ZM17.9796 20.5656L17.8497 20.4484M17.9796 20.5656C17.9797 20.5656 17.9797 20.5655 17.9797 20.5655L17.8497 20.4484M17.8497 20.4484C17.7389 20.5714 17.581 20.6417 17.4152 20.6417H1.58461C1.41902 20.6417 1.26107 20.5714 1.15018 20.4484M17.8497 20.4484C17.9607 20.3252 18.0141 20.1608 17.9968 19.9961L1.15018 20.4484M1.15018 20.4484C1.03944 20.3252 0.985941 20.1608 1.00317 19.9961L1.15018 20.4484ZM1.15018 20.4484L1.15018 20.4484L1.15018 20.4484ZM7.2275 4.61659C7.2275 3.3638 8.24713 2.34416 9.50007 2.34416C10.7529 2.34416 11.7725 3.3638 11.7725 4.61659V5.08132H7.2275V4.61659ZM15.2385 6.60048L16.5719 19.2976H2.42812L3.76148 6.60048H5.70833V7.71378C5.70833 8.13322 6.04848 8.47336 6.46792 8.47336C6.88735 8.47336 7.2275 8.13322 7.2275 7.71378V6.60048H11.7725V7.71378C11.7725 8.13322 12.1126 8.47336 12.5321 8.47336C12.9515 8.47336 13.2917 8.13322 13.2917 7.71378V6.60048H15.2385Z" fill="#37474F" stroke="#37474F" stroke-width="0.35" stroke-linejoin="round"/>
</svg>
