<svg width="18" height="18" viewBox="0 0 18 18" fill="none" xmlns="http://www.w3.org/2000/svg">
<path fill-rule="evenodd" clip-rule="evenodd" d="M7 10H1C0.45 10 0 9.55 0 9V1C0 0.45 0.45 0 1 0H7C7.55 0 8 0.45 8 1V9C8 9.55 7.55 10 7 10ZM16 10H12V16H16V10ZM1 18H7C7.55 18 8 17.55 8 17V13C8 12.45 7.55 12 7 12H1C0.45 12 0 12.45 0 13V17C0 17.55 0.45 18 1 18ZM6 16V14H2V16H6ZM11 18H17C17.55 18 18 17.55 18 17V9C18 8.45 17.55 8 17 8H11C10.45 8 10 8.45 10 9V17C10 17.55 10.45 18 11 18ZM6 8V2H2V8H6ZM10 1V5C10 5.55 10.45 6 11 6H17C17.55 6 18 5.55 18 5V1C18 0.45 17.55 0 17 0H11C10.45 0 10 0.45 10 1ZM16 4V2H12V4H16Z" fill="#37474F"/>
</svg>
